<svg width="612" height="504" viewBox="0 0 612 504" fill="none" xmlns="http://www.w3.org/2000/svg">
<path d="M70.7709 472.829C54.4448 441.079 27.0744 427.709 11.7557 422.484C8.14761 421.253 7.40443 415.68 10.7552 413.862C43.698 395.989 97.7625 367.196 112.5 361.445C133 353.445 173.5 371.445 182 402.945C220.919 385.895 259.409 414.755 277.179 434.862C279.244 437.197 278.464 440.781 275.706 442.233L174.737 495.419C165.562 500.252 154.36 498.883 145.843 492.969C129.009 481.281 100.042 465.248 78.9041 475.266C75.9867 476.648 72.2472 475.7 70.7709 472.829Z" fill="#D6D3FF"/>
<ellipse cx="59.2963" cy="78.3995" rx="59.2963" ry="78.3995" transform="matrix(0.985549 0.16939 -0.0957126 0.995409 444.031 16.1475)" fill="#D6D3FF"/>
<ellipse cx="36.3616" cy="48.076" rx="36.3616" ry="48.076" transform="matrix(0.985549 0.16939 -0.0957126 0.995409 524.703 6.55664)" fill="#D6D3FF"/>
<path d="M92.3838 184.254L81.1885 260.191C80.7724 263.013 82.1109 265.806 84.5718 267.25L109.713 281.998C115.643 285.477 122.9 285.832 129.142 282.95L236.273 233.482C239.46 232.01 241.497 228.836 241.422 225.327C241.201 215.077 240.361 192.558 237.162 169.758C233.746 145.418 221.314 128.281 216.181 122.094C214.871 120.515 212.699 120.073 210.808 120.868L108.029 164.079C99.6437 167.604 93.7105 175.255 92.3838 184.254Z" fill="#6DF9A5"/>
<path d="M302 221.051L145.165 299.468C134.824 304.639 134.852 319.406 145.213 324.536L356.666 429.248C371.601 436.644 389.207 436.276 403.82 428.262L522.995 362.908C530.881 358.584 536.314 350.846 537.703 341.96L567.692 150.118C568.755 143.319 565.055 136.67 558.718 133.988L339.256 41.1031C333.82 38.8025 327.679 42.2692 326.839 48.1118L302 221.051Z" fill="#73ECFF"/>
<ellipse cx="546.5" cy="393.051" rx="65" ry="51.5" fill="#6DF9A5"/>
<path d="M507.132 418.965C505.717 402.609 518.611 388.551 535.028 388.551H567.98C584.025 388.551 596.788 402.007 595.941 418.029L593.403 466.029C592.616 480.898 580.331 492.551 565.442 492.551H539.182C524.653 492.551 512.538 481.439 511.286 466.965L507.132 418.965Z" fill="#6DF9A5"/>
<path d="M473.712 374.77C473.712 374.77 422.382 401.44 397.502 413.19C369.782 426.27 350.232 410.47 325.232 400.47C300.232 390.47 193.442 338.47 165.892 323.47C139.512 309.08 131.722 297.1 157.232 283.47C178.232 272.29 249.442 238.92 278.232 225.47C295.442 217.47 303.132 214.08 308.822 217.91C315.352 222.32 310.822 228.85 303.442 225.09C297.082 221.83 298.222 206.27 299.652 191.79C302.302 165.04 315.652 80.87 318.812 62.99C324.752 28.99 325.082 27.32 340.202 33.12C349.722 36.77 540.202 118.12 553.202 124.12C566.202 130.12 562.202 142.12 560.202 154.12C558.202 166.12 532.942 323.02 532.942 323.02" stroke="#1D1D1F" stroke-width="4" stroke-miterlimit="10"/>
<path d="M348.119 345.62C348.119 345.62 331.339 353.41 323.549 357.62C315.759 361.83 309.159 363.62 293.549 357.62C277.939 351.62 236.009 331.84 227.009 325.25C218.009 318.66 227.009 316.86 235.409 310.86C243.809 304.86 262.979 297.08 274.409 289.28C285.839 281.48 275.009 279.09 270.809 282.09C266.609 285.09 261.229 288.67 285.229 298.86C309.229 309.05 362.509 338.47 384.089 347.47C405.669 356.47 411.669 361.26 433.249 352.26C454.829 343.26 457.819 343.26 471.009 334.26C484.199 325.26 480.009 322.26 462.619 313.26C445.229 304.26 330.739 251.47 316.349 243.71C301.959 235.95 294.769 233.52 277.989 240.71C261.209 247.9 252.229 253.9 239.619 260.47C227.009 267.04 227.029 273.06 237.229 277.85C247.429 282.64 255.809 286.24 255.809 286.24" stroke="#1D1D1F" stroke-width="4" stroke-miterlimit="10"/>
<path d="M286.379 256.9C315.749 268.29 435.639 329.44 435.639 329.44" stroke="#1D1D1F" stroke-width="4" stroke-miterlimit="10"/>
<path d="M518.109 286.922C518.109 286.922 538.439 167.842 540.189 157.362C541.939 146.882 545.189 137.912 533.819 132.672C522.449 127.432 356.099 56.8516 347.949 53.2716C337.369 48.6216 334.659 45.8116 330.209 78.9416C327.929 95.9416 314.799 172.882 312.789 192.422C311.059 209.272 317.969 213.422 324.599 217.872C331.229 222.322 488.489 296.652 499.539 301.512C510.589 306.372 515.459 301.472 518.109 286.922Z" stroke="#1D1D1F" stroke-width="4" stroke-miterlimit="10"/>
<path d="M97.5483 439.16C97.5483 439.16 145.818 412.47 167.428 401.83C189.038 391.19 224.708 363.74 278.898 427.36L160.228 490.29C139.548 458.19 88.8083 441.17 74.7983 455.39C64.1883 466.16 80.9084 471.98 82.2784 461.93C83.7684 451.09 56.2784 403.74 9.64844 406.83C9.64844 406.83 66.2685 376.52 90.5385 361.66C114.808 346.8 131.048 347.15 151.318 358.66C171.588 370.17 177.228 385.79 177.228 385.79" stroke="#1D1D1F" stroke-width="4" stroke-miterlimit="10"/>
<path d="M149.012 446.882C163.582 437.462 182.572 426.232 188.852 422.932" stroke="#1D1D1F" stroke-width="4" stroke-miterlimit="10"/>
<path d="M197.82 414.66C196.63 415.43 196.72 417.4 197.52 418.56C197.958 419.12 198.528 419.561 199.179 419.844C199.831 420.127 200.543 420.243 201.25 420.18C202.664 420.033 204.03 419.579 205.25 418.85C206.05 418.41 206.95 417.67 206.72 416.79C206.525 416.316 206.172 415.924 205.72 415.68C204.581 414.801 203.299 414.125 201.93 413.68C201.244 413.471 200.515 413.441 199.815 413.595C199.114 413.75 198.465 414.082 197.93 414.56" fill="#1D1D1F"/>
<path d="M59.6797 399.23C65.9497 401.44 72.3098 403.69 77.7798 407.47C83.2498 411.25 87.7797 416.81 88.9197 423.36" stroke="#1D1D1F" stroke-width="4" stroke-miterlimit="10"/>
<path d="M80.3086 389.051C85.9486 390.711 91.6586 392.401 96.6886 395.441C101.719 398.481 106.089 403.081 107.559 408.781" stroke="#1D1D1F" stroke-width="4" stroke-miterlimit="10"/>
<path d="M99.0781 379.221C104.243 380.135 109.161 382.11 113.523 385.023C117.885 387.935 121.594 391.721 124.418 396.141" stroke="#1D1D1F" stroke-width="4" stroke-miterlimit="10"/>
<path d="M116.871 369.971C121.727 371.067 126.376 372.934 130.641 375.501C134.821 378.201 138.351 382.151 139.741 386.921" stroke="#1D1D1F" stroke-width="4" stroke-miterlimit="10"/>
<path d="M98.1826 240.147L74.5 251.967C75.5617 236.19 77.8558 220.52 81.3613 205.099C83.7479 192.462 88.5594 179.969 92.4087 167.476C92.4087 163.632 94.3333 160.749 90.484 156.905C87.5971 154.022 81.8232 155.944 83.7478 160.749C98.1826 197.267 108.768 234.746 112.617 273.551C117.217 271.629 112.415 270.822 112.617 273.551C141.237 261.558 168.884 247.46 196.945 234.256C204.894 230.508 221.455 221.763 229.5 218.265L228.865 209.376" stroke="#1D1D1F" stroke-width="4" stroke-miterlimit="10"/>
<path d="M120 149.284L102.5 157.469C102.5 157.469 118.842 189.048 127.428 249.551L238.5 197.981C235.927 152.013 221.319 127.483 209.226 107.551L198.804 112.426M134 142.736L153.638 133.551M167.535 127.051L188.381 117.301" stroke="#1D1D1F" stroke-width="4" stroke-miterlimit="10"/>
<path d="M95.5 144.982C99.9737 119.87 139.168 136.248 124.05 163.551" stroke="#1D1D1F" stroke-width="4" stroke-miterlimit="10"/>
<path d="M128.5 129.383C132.974 103.461 172.168 120.367 157.05 148.551" stroke="#1D1D1F" stroke-width="4" stroke-miterlimit="10"/>
<path d="M163.5 112.982C167.842 87.8702 205.8 104.248 191.159 131.551" stroke="#1D1D1F" stroke-width="4" stroke-miterlimit="10"/>
<path d="M133.5 185.4C136.32 183.827 138.676 181.532 140.328 178.748C141.981 175.965 142.872 172.792 142.911 169.551C144.26 179.641 146.125 189.654 148.5 199.551" stroke="#1D1D1F" stroke-width="4" stroke-miterlimit="10"/>
<path d="M160.5 168.551C165.766 165.785 196.872 152.448 207.5 147.551" stroke="#1D1D1F" stroke-width="4" stroke-miterlimit="10"/>
<path d="M167.5 188.551C172.766 185.653 203.872 171.681 214.5 166.551" stroke="#1D1D1F" stroke-width="4" stroke-miterlimit="10"/>
<path d="M140.5 220.551C149.114 216.075 200.087 194.419 217.5 186.551" stroke="#1D1D1F" stroke-width="4" stroke-miterlimit="10"/>
<path d="M520.831 359.52C520.831 359.52 513.951 351.52 514.311 333.52C515.311 333.52 531.861 332.98 535.431 347.52" stroke="#1D1D1F" stroke-width="4" stroke-miterlimit="10"/>
<path d="M540.75 353.131C540.75 353.131 541.92 334.991 558.12 330.361C562.52 336.521 567.12 342.481 565.68 348.261" stroke="#1D1D1F" stroke-width="4" stroke-miterlimit="10"/>
<path d="M565.23 361.021C575.08 348.901 582.501 347.601 594.031 347.731C593.421 364.141 584.93 366.401 584.93 366.401" stroke="#1D1D1F" stroke-width="4" stroke-miterlimit="10"/>
<path d="M565.808 369.731C573.808 369.281 584.608 374.731 585.398 380.961C585.398 380.961 574.518 388.401 562.398 377.961" stroke="#1D1D1F" stroke-width="4" stroke-miterlimit="10"/>
<path d="M554.29 377.301C557.18 382.061 554.94 389.541 549.15 392.051C544.51 390.051 537.02 386.751 540.27 377.351" stroke="#1D1D1F" stroke-width="4" stroke-miterlimit="10"/>
<path d="M523.761 369.641C508.831 369.641 513.691 379.641 515.411 384.991C520.611 385.061 530.741 382.231 530.631 375.991" stroke="#1D1D1F" stroke-width="4" stroke-miterlimit="10"/>
<path d="M508.071 371.171C500.131 375.591 484.941 363.32 484.941 363.32C494.181 351.43 506.311 354.63 511.721 358.77" stroke="#1D1D1F" stroke-width="4" stroke-miterlimit="10"/>
<path d="M543.23 365.472C544.06 361.592 550.29 355.652 555.62 354.182C557.89 358.072 558.79 361.952 554.5 369.842" stroke="#1D1D1F" stroke-width="4" stroke-miterlimit="10"/>
<path d="M529.291 367.78C529.291 367.78 524.901 361.5 525.511 354.86C525.511 354.86 534.641 354.62 537.041 362.46" stroke="#1D1D1F" stroke-width="4" stroke-miterlimit="10"/>
<path d="M574.32 394.711C583.42 395.241 592.54 392.351 601.17 391.591C600.24 384.291 599.11 376.331 589.91 373.221" stroke="#1D1D1F" stroke-width="4" stroke-miterlimit="10"/>
<path d="M532.57 397.211C533.26 400.871 542.8 406.841 546.74 410.211C552.66 405.561 558.2 402.341 560.55 398.141" stroke="#1D1D1F" stroke-width="4" stroke-miterlimit="10"/>
<path d="M503.759 379.281C497.839 382.991 493.889 389.681 491.609 395.871C499.609 397.031 513.969 398.471 521.949 393.231" stroke="#1D1D1F" stroke-width="4" stroke-miterlimit="10"/>
<path d="M489.561 402.701C487.561 410.531 493.851 430.881 540.751 434.951C587.651 439.021 600.861 407.711 593.601 400.201" stroke="#1D1D1F" stroke-width="4" stroke-miterlimit="10"/>
<path d="M584.898 431.791C584.898 431.791 585.288 454.561 583.798 461.961C582.078 470.501 575.588 485.851 542.398 484.861C512.898 483.981 506.958 470.101 505.188 461.961L502.988 433.111" stroke="#1D1D1F" stroke-width="4" stroke-miterlimit="10"/>
<path d="M387.84 399.21L494.63 339.32" stroke="#1D1D1F" stroke-width="4" stroke-miterlimit="10"/>
<g clip-path="url(#clip0_287_61)">
<mask id="mask0_287_61" style="mask-type:alpha" maskUnits="userSpaceOnUse" x="418" y="-27" width="249" height="141">
<path d="M561.5 113.557L430 60.0566L418 30.0566L454 -26.4434L613.5 -20.4434L667 42.5566L561.5 113.557Z" fill="#C4C4C4"/>
</mask>
<g mask="url(#mask0_287_61)">
<path d="M548.491 95.9264C548.55 95.1583 548.36 94.3916 547.949 93.7397C547.538 93.0878 546.929 92.5853 546.211 92.3064L536.501 89.5964C535.864 89.364 535.304 88.9614 534.881 88.4324C534.458 87.9034 534.188 87.2683 534.101 86.5964L531.751 73.9564C531.601 73.316 531.614 72.6483 531.789 72.0142C531.964 71.3802 532.294 70.8 532.751 70.3264L540.751 63.2464C541.27 62.6938 541.612 61.9993 541.735 61.2514C541.858 60.5035 541.755 59.736 541.441 59.0464C539.145 53.5419 536.262 48.3015 532.841 43.4164C532.677 43.1199 532.45 42.8628 532.176 42.6634C531.902 42.464 531.587 42.3271 531.254 42.2623C530.922 42.1975 530.579 42.2063 530.25 42.2883C529.921 42.3702 529.614 42.5232 529.351 42.7364L521.951 49.1064C521.494 49.4932 520.909 49.6944 520.311 49.6703C519.712 49.6463 519.145 49.3986 518.721 48.9764L510.131 41.4564C509.639 40.9853 509.262 40.4077 509.028 39.7681C508.794 39.1285 508.709 38.4438 508.781 37.7664L509.971 25.8664C510.074 25.1146 509.951 24.3492 509.618 23.6673C509.285 22.9854 508.757 22.4178 508.101 22.0364C505.897 21.0036 503.621 20.1314 501.291 19.4264C498.835 18.6849 496.324 18.1432 493.781 17.8064C492.451 17.6364 491.301 18.8064 491.111 20.4364L489.951 31.2664C489.928 31.904 489.707 32.5187 489.318 33.0243C488.929 33.5299 488.391 33.9013 487.781 34.0864L477.991 36.0864C477.394 36.1655 476.788 36.0531 476.26 35.7656C475.732 35.478 475.308 35.0301 475.051 34.4864L469.381 24.6664C468.581 23.2964 467.171 22.7664 466.041 23.4264C461.657 25.996 457.685 29.2122 454.261 32.9664C453.777 33.5936 453.49 34.3504 453.436 35.1409C453.383 35.9313 453.565 36.7198 453.961 37.4064L459.131 46.6164C459.476 47.2419 459.669 47.9397 459.695 48.6536C459.721 49.3675 459.579 50.0775 459.281 50.7264L454.001 61.1064C453.779 61.6385 453.377 62.0749 452.864 62.3385C452.352 62.6021 451.762 62.6757 451.201 62.5464L441.871 60.1364C441.547 60.072 441.214 60.0747 440.892 60.1444C440.569 60.214 440.264 60.3491 439.996 60.5413C439.728 60.7335 439.502 60.9786 439.333 61.2616C439.163 61.5446 439.054 61.8594 439.011 62.1864C438.198 65.4164 437.58 68.6923 437.161 71.9964C436.821 74.6631 436.601 77.3298 436.501 79.9964C436.436 80.7746 436.624 81.5528 437.036 82.2158C437.449 82.8787 438.064 83.3909 438.791 83.6764L447.571 86.1164C448.206 86.3508 448.765 86.754 449.188 87.2826C449.611 87.8113 449.882 88.4453 449.971 89.1164L452.321 101.756C452.471 102.397 452.458 103.065 452.284 103.699C452.109 104.333 451.778 104.913 451.321 105.386L443.511 112.316C442.997 112.855 442.654 113.533 442.524 114.266C442.394 114.999 442.483 115.754 442.781 116.436C444.958 122.018 447.731 127.349 451.051 132.336C451.208 132.646 451.432 132.916 451.707 133.128C451.982 133.34 452.3 133.488 452.64 133.56C452.979 133.633 453.33 133.629 453.668 133.549C454.005 133.469 454.321 133.314 454.591 133.096L462.121 126.646C462.578 126.26 463.163 126.058 463.761 126.083C464.359 126.107 464.926 126.354 465.351 126.776L473.931 134.286C474.425 134.758 474.804 135.337 475.039 135.979C475.273 136.62 475.356 137.307 475.281 137.986L473.951 151.106C473.853 151.852 473.975 152.609 474.302 153.286C474.629 153.963 475.146 154.529 475.791 154.916C478.319 156.165 480.944 157.205 483.641 158.026C485.738 158.658 487.877 159.145 490.041 159.486C491.401 159.696 492.581 158.556 492.771 156.856L494.161 144.526C494.172 143.885 494.389 143.263 494.78 142.754C495.17 142.245 495.714 141.874 496.331 141.696L506.111 139.696C506.708 139.62 507.315 139.733 507.844 140.02C508.373 140.307 508.799 140.754 509.061 141.296L515.661 152.736C515.792 153.043 515.984 153.319 516.226 153.548C516.467 153.778 516.753 153.956 517.065 154.072C517.377 154.188 517.71 154.239 518.043 154.223C518.375 154.206 518.701 154.123 519.001 153.976C523.376 151.403 527.341 148.187 530.761 144.436C531.241 143.809 531.525 143.054 531.577 142.265C531.628 141.477 531.445 140.691 531.051 140.006L524.951 129.106C524.6 128.483 524.404 127.785 524.378 127.07C524.351 126.355 524.497 125.644 524.801 124.996L530.051 114.626C530.274 114.094 530.679 113.657 531.193 113.393C531.707 113.13 532.298 113.057 532.861 113.186L543.401 115.916C543.729 115.981 544.066 115.976 544.392 115.904C544.718 115.831 545.026 115.692 545.296 115.495C545.565 115.297 545.791 115.046 545.959 114.758C546.127 114.469 546.233 114.148 546.271 113.816C546.923 111.031 547.43 108.214 547.791 105.376C548.191 102.241 548.425 99.0866 548.491 95.9264V95.9264ZM487.821 122.976C472.641 118.396 462.301 99.2664 464.731 80.2464C467.161 61.2264 481.441 49.5264 496.621 54.1064C511.801 58.6864 522.131 77.8264 519.701 96.8464C517.271 115.866 503.001 127.566 487.821 122.976Z" stroke="black" stroke-width="4" stroke-miterlimit="10"/>
</g>
<mask id="mask1_287_61" style="mask-type:alpha" maskUnits="userSpaceOnUse" x="505" y="-14" width="100" height="117">
<path d="M529 27.5566L505.5 -3.44336L552 -13.4434L594.5 5.55664L605 87.5566L561 102.057V85.5566L554.5 77.5566L546 74.5566L547.5 64.5566L552 63.5566L554.5 59.0566L552 51.0566L536 31.0566L529.5 36.5566L525 34.0566L529 27.5566Z" fill="#C4C4C4"/>
</mask>
<g mask="url(#mask1_287_61)">
<path d="M585.447 51.2112C585.466 50.7685 585.333 50.3325 585.072 49.9741C584.81 49.6157 584.434 49.3559 584.006 49.2367L579.701 48.5511C579.401 48.48 579.129 48.3237 578.917 48.1014C578.705 47.8791 578.563 47.6002 578.507 47.2988L575.092 34.3458C575.007 34.0496 574.994 33.7373 575.055 33.4351C575.116 33.1329 575.248 32.8496 575.441 32.6089L578.581 29.2084C578.857 28.8526 579.022 28.4234 579.055 27.9745C579.088 27.5257 578.987 27.0773 578.764 26.6855C575.983 21.5655 572.204 17.0499 567.648 13.4034C567.496 13.2738 567.316 13.1815 567.122 13.1338C566.929 13.0862 566.726 13.0845 566.531 13.1289C566.337 13.1734 566.155 13.2628 566.002 13.3898C565.848 13.5168 565.726 13.678 565.647 13.8604L562.838 19.1257C562.723 19.3772 562.519 19.5777 562.265 19.689C562.011 19.8003 561.725 19.8145 561.461 19.729L551.125 16.1366C550.847 16.0178 550.605 15.8289 550.423 15.5884C550.241 15.3478 550.125 15.0641 550.087 14.7654L548.885 8.18377C548.839 7.76155 548.648 7.36821 548.343 7.0713C548.038 6.7744 547.639 6.59245 547.214 6.55664C542.149 6.89134 537.282 8.6401 533.169 11.6025C532.834 11.902 532.603 12.2996 532.509 12.7381C532.415 13.1767 532.463 13.6336 532.646 14.0433L535.4 20.9997C535.519 21.2967 535.564 21.6179 535.532 21.9361C535.5 22.2543 535.392 22.5602 535.216 22.8279L528.267 32.1884C528.122 32.4065 527.902 32.5641 527.649 32.6314C527.395 32.6988 527.125 32.6713 526.89 32.5541L521.603 30.0128C521.42 29.934 521.221 29.8971 521.022 29.905C520.823 29.9129 520.628 29.9652 520.451 30.0583C520.275 30.1513 520.122 30.2826 520.004 30.4425C519.885 30.6023 519.804 30.7867 519.767 30.9818C518.904 33.7653 518.289 36.6193 517.931 39.5105C517.512 42.8052 517.398 46.1314 517.591 49.4469C517.589 49.8785 517.729 50.2989 517.989 50.6439C518.249 50.989 518.616 51.2396 519.033 51.3574L524.834 52.2716C525.133 52.3437 525.405 52.5003 525.616 52.7225C525.828 52.9446 525.971 53.2229 526.028 53.5239L529.442 66.4769C529.528 66.7716 529.541 67.0825 529.48 67.3832C529.419 67.6839 529.287 67.9657 529.094 68.2046L525.578 72.0256C525.288 72.3933 525.121 72.8413 525.098 73.3079C525.074 73.7745 525.197 74.2367 525.449 74.6308C528.445 79.5596 532.429 83.8198 537.153 87.1451C537.307 87.2586 537.484 87.3361 537.671 87.3717C537.859 87.4074 538.052 87.4004 538.237 87.3512C538.421 87.3019 538.592 87.2118 538.737 87.0874C538.882 86.9631 538.996 86.8078 539.072 86.6332L541.706 81.6969C541.821 81.4455 542.025 81.245 542.279 81.1337C542.533 81.0224 542.819 81.0081 543.083 81.0936L553.438 84.6952C553.715 84.8124 553.957 84.9998 554.139 85.2387C554.321 85.4777 554.437 85.7599 554.475 86.0573L555.393 90.9387C555.429 91.3715 555.624 91.7758 555.941 92.0744C556.258 92.3729 556.674 92.5446 557.11 92.5566C562.026 91.9881 566.692 90.0914 570.604 87.0719C570.931 86.7708 571.155 86.3755 571.246 85.9412C571.336 85.507 571.288 85.0554 571.109 84.6495L569.208 79.8139C569.089 79.5168 569.044 79.1956 569.076 78.8774C569.108 78.5592 569.216 78.2533 569.392 77.9856L576.332 68.6251C576.477 68.4048 576.699 68.2456 576.955 68.1782C577.21 68.1107 577.482 68.1397 577.718 68.2595L581.206 69.9323C581.385 70.0131 581.58 70.0531 581.777 70.0493C581.973 70.0455 582.167 69.9982 582.343 69.9106C582.519 69.823 582.673 69.6974 582.794 69.5431C582.915 69.3887 582.999 69.2094 583.042 69.0182C584.04 65.9936 584.744 62.8804 585.144 59.7216C585.473 56.8974 585.574 54.0515 585.447 51.2112Z" stroke="black" stroke-width="4" stroke-miterlimit="10"/>
<path d="M536.679 47.3369C535.454 57.0066 540.656 66.7259 548.291 69.0525C555.902 71.3792 563.096 65.4305 564.321 55.769C565.546 46.1076 560.352 36.3883 552.717 34.0617C545.082 31.735 537.904 37.6672 536.679 47.3369Z" stroke="black" stroke-width="4" stroke-miterlimit="10"/>
</g>
</g>
<defs>
<clipPath id="clip0_287_61">
<rect width="158.87" height="160.92" fill="white" transform="translate(434.5 0.556641)"/>
</clipPath>
</defs>
</svg>
