<svg width="612" height="498" viewBox="0 0 612 498" fill="none" xmlns="http://www.w3.org/2000/svg">
<path d="M70.7709 466.829C54.4448 435.079 27.0744 421.709 11.7557 416.484C8.14761 415.253 7.40443 409.68 10.7552 407.862C43.698 389.989 97.7625 361.196 112.5 355.445C133 347.445 173.5 365.445 182 396.945C220.919 379.895 259.409 408.755 277.179 428.862C279.244 431.197 278.464 434.781 275.706 436.233L174.737 489.419C165.562 494.252 154.36 492.883 145.843 486.969C129.009 475.281 100.042 459.248 78.9041 469.266C75.9867 470.648 72.2472 469.7 70.7709 466.829Z" fill="#D6D3FF"/>
<ellipse cx="59.2963" cy="78.3995" rx="59.2963" ry="78.3995" transform="matrix(0.985549 0.16939 -0.0957126 0.995409 444.031 10.1475)" fill="#D6D3FF"/>
<ellipse cx="36.3616" cy="48.076" rx="36.3616" ry="48.076" transform="matrix(0.985549 0.16939 -0.0957126 0.995409 524.703 0.556641)" fill="#D6D3FF"/>
<path d="M92.3838 178.254L81.1885 254.191C80.7724 257.013 82.1109 259.806 84.5718 261.25L109.713 275.998C115.643 279.477 122.9 279.832 129.142 276.95L236.273 227.482C239.46 226.01 241.497 222.836 241.422 219.327C241.201 209.077 240.361 186.558 237.162 163.758C233.746 139.418 221.314 122.281 216.181 116.094C214.871 114.515 212.699 114.073 210.808 114.868L108.029 158.079C99.6437 161.604 93.7105 169.255 92.3838 178.254Z" fill="#6DF9A5"/>
<path d="M302 215.051L145.165 293.468C134.824 298.639 134.852 313.406 145.213 318.536L356.666 423.248C371.601 430.644 389.207 430.276 403.82 422.262L522.995 356.908C530.881 352.584 536.314 344.846 537.703 335.96L567.692 144.118C568.755 137.319 565.055 130.67 558.718 127.988L339.256 35.1031C333.82 32.8025 327.679 36.2692 326.839 42.1118L302 215.051Z" fill="#73ECFF"/>
<ellipse cx="546.5" cy="387.051" rx="65" ry="51.5" fill="#6DF9A5"/>
<path d="M507.132 412.965C505.717 396.609 518.611 382.551 535.028 382.551H567.98C584.025 382.551 596.788 396.007 595.941 412.029L593.403 460.029C592.616 474.898 580.331 486.551 565.442 486.551H539.182C524.653 486.551 512.538 475.439 511.286 460.965L507.132 412.965Z" fill="#6DF9A5"/>
<path d="M473.712 368.77C473.712 368.77 422.382 395.44 397.502 407.19C369.782 420.27 350.232 404.47 325.232 394.47C300.232 384.47 193.442 332.47 165.892 317.47C139.512 303.08 131.722 291.1 157.232 277.47C178.232 266.29 249.442 232.92 278.232 219.47C295.442 211.47 303.132 208.08 308.822 211.91C315.352 216.32 310.822 222.85 303.442 219.09C297.082 215.83 298.222 200.27 299.652 185.79C302.302 159.04 315.652 74.87 318.812 56.99C324.752 22.99 325.082 21.32 340.202 27.12C349.722 30.77 540.202 112.12 553.202 118.12C566.202 124.12 562.202 136.12 560.202 148.12C558.202 160.12 532.942 317.02 532.942 317.02" stroke="#1D1D1F" stroke-width="4" stroke-miterlimit="10"/>
<path d="M348.119 339.62C348.119 339.62 331.339 347.41 323.549 351.62C315.759 355.83 309.159 357.62 293.549 351.62C277.939 345.62 236.009 325.84 227.009 319.25C218.009 312.66 227.009 310.86 235.409 304.86C243.809 298.86 262.979 291.08 274.409 283.28C285.839 275.48 275.009 273.09 270.809 276.09C266.609 279.09 261.229 282.67 285.229 292.86C309.229 303.05 362.509 332.47 384.089 341.47C405.669 350.47 411.669 355.26 433.249 346.26C454.829 337.26 457.819 337.26 471.009 328.26C484.199 319.26 480.009 316.26 462.619 307.26C445.229 298.26 330.739 245.47 316.349 237.71C301.959 229.95 294.769 227.52 277.989 234.71C261.209 241.9 252.229 247.9 239.619 254.47C227.009 261.04 227.029 267.06 237.229 271.85C247.429 276.64 255.809 280.24 255.809 280.24" stroke="#1D1D1F" stroke-width="4" stroke-miterlimit="10"/>
<path d="M286.379 250.9C315.749 262.29 435.639 323.44 435.639 323.44" stroke="#1D1D1F" stroke-width="4" stroke-miterlimit="10"/>
<path d="M518.109 280.922C518.109 280.922 538.439 161.842 540.189 151.362C541.939 140.882 545.189 131.912 533.819 126.672C522.449 121.432 356.099 50.8516 347.949 47.2716C337.369 42.6216 334.659 39.8116 330.209 72.9416C327.929 89.9416 314.799 166.882 312.789 186.422C311.059 203.272 317.969 207.422 324.599 211.872C331.229 216.322 488.489 290.652 499.539 295.512C510.589 300.372 515.459 295.472 518.109 280.922Z" stroke="#1D1D1F" stroke-width="4" stroke-miterlimit="10"/>
<path d="M97.5483 433.16C97.5483 433.16 145.818 406.47 167.428 395.83C189.038 385.19 224.708 357.74 278.898 421.36L160.228 484.29C139.548 452.19 88.8083 435.17 74.7983 449.39C64.1883 460.16 80.9084 465.98 82.2784 455.93C83.7684 445.09 56.2784 397.74 9.64844 400.83C9.64844 400.83 66.2685 370.52 90.5385 355.66C114.808 340.8 131.048 341.15 151.318 352.66C171.588 364.17 177.228 379.79 177.228 379.79" stroke="#1D1D1F" stroke-width="4" stroke-miterlimit="10"/>
<path d="M149.012 440.882C163.582 431.462 182.572 420.232 188.852 416.932" stroke="#1D1D1F" stroke-width="4" stroke-miterlimit="10"/>
<path d="M197.82 408.66C196.63 409.43 196.72 411.4 197.52 412.56C197.958 413.12 198.528 413.561 199.179 413.844C199.831 414.127 200.543 414.243 201.25 414.18C202.664 414.033 204.03 413.579 205.25 412.85C206.05 412.41 206.95 411.67 206.72 410.79C206.525 410.316 206.172 409.924 205.72 409.68C204.581 408.801 203.299 408.125 201.93 407.68C201.244 407.471 200.515 407.441 199.815 407.595C199.114 407.75 198.465 408.082 197.93 408.56" fill="#1D1D1F"/>
<path d="M59.6797 393.23C65.9497 395.44 72.3098 397.69 77.7798 401.47C83.2498 405.25 87.7797 410.81 88.9197 417.36" stroke="#1D1D1F" stroke-width="4" stroke-miterlimit="10"/>
<path d="M80.3086 383.051C85.9486 384.711 91.6586 386.401 96.6886 389.441C101.719 392.481 106.089 397.081 107.559 402.781" stroke="#1D1D1F" stroke-width="4" stroke-miterlimit="10"/>
<path d="M99.0781 373.221C104.243 374.135 109.161 376.11 113.523 379.023C117.885 381.935 121.594 385.721 124.418 390.141" stroke="#1D1D1F" stroke-width="4" stroke-miterlimit="10"/>
<path d="M116.871 363.971C121.727 365.067 126.376 366.934 130.641 369.501C134.821 372.201 138.351 376.151 139.741 380.921" stroke="#1D1D1F" stroke-width="4" stroke-miterlimit="10"/>
<path d="M98.1826 234.147L74.5 245.967C75.5617 230.19 77.8558 214.52 81.3613 199.099C83.7479 186.462 88.5594 173.969 92.4087 161.476C92.4087 157.632 94.3333 154.749 90.484 150.905C87.5971 148.022 81.8232 149.944 83.7478 154.749C98.1826 191.267 108.768 228.746 112.617 267.551C117.217 265.629 112.415 264.822 112.617 267.551C141.237 255.558 168.884 241.46 196.945 228.256C204.894 224.508 221.455 215.763 229.5 212.265L228.865 203.376" stroke="#1D1D1F" stroke-width="4" stroke-miterlimit="10"/>
<path d="M120 143.284L102.5 151.469C102.5 151.469 118.842 183.048 127.428 243.551L238.5 191.981C235.927 146.013 221.319 121.483 209.226 101.551L198.804 106.426M134 136.736L153.638 127.551M167.535 121.051L188.381 111.301" stroke="#1D1D1F" stroke-width="4" stroke-miterlimit="10"/>
<path d="M95.5 138.982C99.9737 113.87 139.168 130.248 124.05 157.551" stroke="#1D1D1F" stroke-width="4" stroke-miterlimit="10"/>
<path d="M128.5 123.383C132.974 97.4611 172.168 114.367 157.05 142.551" stroke="#1D1D1F" stroke-width="4" stroke-miterlimit="10"/>
<path d="M163.5 106.982C167.842 81.8702 205.8 98.248 191.159 125.551" stroke="#1D1D1F" stroke-width="4" stroke-miterlimit="10"/>
<path d="M133.5 179.4C136.32 177.827 138.676 175.532 140.328 172.748C141.981 169.965 142.872 166.792 142.911 163.551C144.26 173.641 146.125 183.654 148.5 193.551" stroke="#1D1D1F" stroke-width="4" stroke-miterlimit="10"/>
<path d="M160.5 162.551C165.766 159.785 196.872 146.448 207.5 141.551" stroke="#1D1D1F" stroke-width="4" stroke-miterlimit="10"/>
<path d="M167.5 182.551C172.766 179.653 203.872 165.681 214.5 160.551" stroke="#1D1D1F" stroke-width="4" stroke-miterlimit="10"/>
<path d="M140.5 214.551C149.114 210.075 200.087 188.419 217.5 180.551" stroke="#1D1D1F" stroke-width="4" stroke-miterlimit="10"/>
<path d="M520.831 353.52C520.831 353.52 513.951 345.52 514.311 327.52C515.311 327.52 531.861 326.98 535.431 341.52" stroke="#1D1D1F" stroke-width="4" stroke-miterlimit="10"/>
<path d="M540.75 347.131C540.75 347.131 541.92 328.991 558.12 324.361C562.52 330.521 567.12 336.481 565.68 342.261" stroke="#1D1D1F" stroke-width="4" stroke-miterlimit="10"/>
<path d="M565.23 355.021C575.08 342.901 582.501 341.601 594.031 341.731C593.421 358.141 584.93 360.401 584.93 360.401" stroke="#1D1D1F" stroke-width="4" stroke-miterlimit="10"/>
<path d="M565.808 363.731C573.808 363.281 584.608 368.731 585.398 374.961C585.398 374.961 574.518 382.401 562.398 371.961" stroke="#1D1D1F" stroke-width="4" stroke-miterlimit="10"/>
<path d="M554.29 371.301C557.18 376.061 554.94 383.541 549.15 386.051C544.51 384.051 537.02 380.751 540.27 371.351" stroke="#1D1D1F" stroke-width="4" stroke-miterlimit="10"/>
<path d="M523.761 363.641C508.831 363.641 513.691 373.641 515.411 378.991C520.611 379.061 530.741 376.231 530.631 369.991" stroke="#1D1D1F" stroke-width="4" stroke-miterlimit="10"/>
<path d="M508.071 365.171C500.131 369.591 484.941 357.32 484.941 357.32C494.181 345.43 506.311 348.63 511.721 352.77" stroke="#1D1D1F" stroke-width="4" stroke-miterlimit="10"/>
<path d="M543.23 359.472C544.06 355.592 550.29 349.652 555.62 348.182C557.89 352.072 558.79 355.952 554.5 363.842" stroke="#1D1D1F" stroke-width="4" stroke-miterlimit="10"/>
<path d="M529.291 361.78C529.291 361.78 524.901 355.5 525.511 348.86C525.511 348.86 534.641 348.62 537.041 356.46" stroke="#1D1D1F" stroke-width="4" stroke-miterlimit="10"/>
<path d="M574.32 388.711C583.42 389.241 592.54 386.351 601.17 385.591C600.24 378.291 599.11 370.331 589.91 367.221" stroke="#1D1D1F" stroke-width="4" stroke-miterlimit="10"/>
<path d="M532.57 391.211C533.26 394.871 542.8 400.841 546.74 404.211C552.66 399.561 558.2 396.341 560.55 392.141" stroke="#1D1D1F" stroke-width="4" stroke-miterlimit="10"/>
<path d="M503.759 373.281C497.839 376.991 493.889 383.681 491.609 389.871C499.609 391.031 513.969 392.471 521.949 387.231" stroke="#1D1D1F" stroke-width="4" stroke-miterlimit="10"/>
<path d="M489.561 396.701C487.561 404.531 493.851 424.881 540.751 428.951C587.651 433.021 600.861 401.711 593.601 394.201" stroke="#1D1D1F" stroke-width="4" stroke-miterlimit="10"/>
<path d="M584.898 425.791C584.898 425.791 585.288 448.561 583.798 455.961C582.078 464.501 575.588 479.851 542.398 478.861C512.898 477.981 506.958 464.101 505.188 455.961L502.988 427.111" stroke="#1D1D1F" stroke-width="4" stroke-miterlimit="10"/>
<path d="M387.84 393.21L494.63 333.32" stroke="#1D1D1F" stroke-width="4" stroke-miterlimit="10"/>
</svg>
